{
    "asset" : {
        "generator" : "Khronos glTF Blender I/O v1.8.19",
        "version" : "2.0"
    },
    "scene" : 0,
    "scenes" : [
        {
            "name" : "Scene",
            "nodes" : [
                0
            ]
        }
    ],
    "nodes" : [
        {
            "mesh" : 0,
            "name" : "Plane.001"
        }
    ],
    "materials" : [
        {
            "doubleSided" : true,
            "name" : "DNA",
            "pbrMetallicRoughness" : {
                "baseColorFactor" : [
                    0.018499523401260376,
                    0.27049747109413147,
                    0.7835376262664795,
                    1
                ],
                "metallicFactor" : 0
            }
        }
    ],
    "meshes" : [
        {
            "name" : "Plane.001",
            "primitives" : [
                {
                    "attributes" : {
                        "POSITION" : 0,
                        "NORMAL" : 1
                    },
                    "indices" : 2,
                    "material" : 0
                }
            ]
        }
    ],
    "accessors" : [
        {
            "bufferView" : 0,
            "componentType" : 5126,
            "count" : 771,
            "max" : [
                1.1366968154907227,
                10.14323616027832,
                1.156613826751709
            ],
            "min" : [
                -1.1278913021087646,
                -10.143271446228027,
                -1.156613826751709
            ],
            "type" : "VEC3"
        },
        {
            "bufferView" : 1,
            "componentType" : 5126,
            "count" : 771,
            "type" : "VEC3"
        },
        {
            "bufferView" : 2,
            "componentType" : 5123,
            "count" : 4986,
            "type" : "SCALAR"
        }
    ],
    "bufferViews" : [
        {
            "buffer" : 0,
            "byteLength" : 9252,
            "byteOffset" : 0
        },
        {
            "buffer" : 0,
            "byteLength" : 9252,
            "byteOffset" : 9252
        },
        {
            "buffer" : 0,
            "byteLength" : 9972,
            "byteOffset" : 18504
        }
    ],
    "buffers" : [
        {
            "byteLength" : 28476,
            "uri" : "data:application/octet-stream;base64,"
        }
    ]
}
