<?xml version="1.0" encoding="UTF-8"?><svg xmlns="http://www.w3.org/2000/svg" id="DNA" viewBox="0 0 1027.65 543"><defs><style>
    .cls-1, .cls-2, .cls-3, .cls-4 {
        fill: none;
        stroke-miterlimit: 10;
    }
    .cls-1, .cls-2 {
        stroke-linecap: round;
        stroke-width: 40px;
    }
    .cls-3, .cls-4 {
        stroke-width: 18px;
    }
    .cls-5 {
        fill: #258ee5;
    }
    .cls-2, .cls-3 {
        stroke: #258ee5;
    }
    .cls-6 {
        fill: #2f2d2e;
    }
    .cls-1, .cls-4 {
        stroke: #2f2d2e;
    }
</style></defs><title>dna</title><path class="cls-1" d="M559.5,132.5s1.13,15.72,4.46,39.3,8.88,55,17.73,86.45,21,62.88,37.51,86.45S656.63,384,683,384s47.28,15.72,63.8,39.3,28.67,55,37.51,86.45S798.7,572.63,802,596.2s4.46,39.3,4.46,39.3" transform="translate(-186.8 -112.5)" /><path class="cls-2" d="M806.5,132.5s-1.13,15.72-4.46,39.3-8.88,55-17.73,86.45-21,62.88-37.51,86.45S709.38,384,683,384s-47.28,15.72-63.8,39.3-28.67,55-37.51,86.45S567.3,572.62,564,596.2s-4.46,39.3-4.46,39.3" transform="translate(-186.8 -112.5)" /><g id="Upper_Strands" data-name="Upper Strands"><line class="cls-3" x1="496.2" y1="59.5" x2="615.2" y2="59.5" /><line class="cls-4" x1="377.2" y1="59.5" x2="496.2" y2="59.5" /><line class="cls-3" x1="496.2" y1="190.5" x2="582.2" y2="190.5" /><line class="cls-4" x1="410.2" y1="190.5" x2="496.2" y2="190.5" /><line class="cls-3" x1="496.2" y1="125.5" x2="603.2" y2="125.5" /><line class="cls-4" x1="389.2" y1="125.5" x2="496.2" y2="125.5" /><line class="cls-3" x1="496.2" y1="484.5" x2="377.2" y2="484.5" /><line class="cls-4" x1="615.2" y1="484.5" x2="496.2" y2="484.5" /><line class="cls-3" x1="496.2" y1="353.5" x2="410.2" y2="353.5" /><line class="cls-4" x1="582.2" y1="353.5" x2="496.2" y2="353.5" /><line class="cls-3" x1="496.2" y1="418.5" x2="389.2" y2="418.5" /><line class="cls-4" x1="603.2" y1="418.5" x2="496.2" y2="418.5" /></g><g id="Text"><path class="cls-5" d="M251.3,537.75Q217.1,526.05,202,509.7T186.8,470.25q0-26.4,16.8-41.7t46.2-15.3q27.6,0,48.6,6.6a20.14,20.14,0,0,1,10.35,7.95,22.41,22.41,0,0,1,4.05,13.05,8.59,8.59,0,0,1-4.5,7.8,9.63,9.63,0,0,1-9.3.6,118.13,118.13,0,0,0-46.2-9.6q-16.2,0-24.9,8.1t-8.7,22.5a31.68,31.68,0,0,0,8.1,21.15q8.1,9.45,24,14.85,39.6,13.2,55.05,29.4t15.45,41.1q0,30.3-18.6,45.9t-54.9,15.6q-23.7,0-42.9-7.2-14.11-5.7-14.1-22.2a7.94,7.94,0,0,1,4.5-7.5,9,9,0,0,1,9,0,84.86,84.86,0,0,0,40.5,9.9q43.49,0,43.5-34.5a32.06,32.06,0,0,0-8.55-22.5Q271.7,544.95,251.3,537.75Z" transform="translate(-186.8 -112.5)" /><path class="cls-5" d="M363.8,443.85a13.8,13.8,0,0,1,0-27.6H492.2a13.8,13.8,0,0,1,0,27.6h-45a2.39,2.39,0,0,0-2.7,2.7v172.2a16.5,16.5,0,1,1-33,0V446.55a2.39,2.39,0,0,0-2.7-2.7Z" transform="translate(-186.8 -112.5)" /><path class="cls-6" d="M967.09,638.25q-45.62,0-73.05-29.4t-27.45-83.1q0-53.1,26.55-82.8t74-29.7a212.49,212.49,0,0,1,37.2,3,16.41,16.41,0,0,1,9.9,6.15,17.75,17.75,0,0,1,3.9,11.25,10,10,0,0,1-4.35,8.55,10.37,10.37,0,0,1-9.45,1.65q-14.12-3.6-34.2-3.6-32.4,0-51.15,22.35t-18.75,63.15q0,40.8,19.2,63.15t50.7,22.35a150.2,150.2,0,0,0,35.7-3.9,10.15,10.15,0,0,1,9.45,1.8,10.42,10.42,0,0,1,4.35,8.7,17.75,17.75,0,0,1-3.9,11.25,16.52,16.52,0,0,1-10.2,6.15A230.24,230.24,0,0,1,967.09,638.25Z" transform="translate(-186.8 -112.5)" /><path class="cls-6" d="M1095.48,630.45a16.5,16.5,0,0,1-28.2-11.7v-186a16.5,16.5,0,1,1,33,0V512a.27.27,0,0,0,.3.3l.6-.3,69.3-82.8q11.1-12.9,27.9-12.9h4.8a7.42,7.42,0,0,1,7,4.5,7.12,7.12,0,0,1-1,8.4l-77.1,90.3a3.19,3.19,0,0,0-.3,3.9l80.7,98.7a8,8,0,0,1-6.3,13.2h-4.8q-17.1,0-27.6-13.2l-72.6-91.5a.86.86,0,0,0-.6-.3.27.27,0,0,0-.3.3v88.2A15.92,15.92,0,0,1,1095.48,630.45Z" transform="translate(-186.8 -112.5)" /><path class="cls-6" d="M374.14,347A17.42,17.42,0,0,1,357,329.9V145.1a17.42,17.42,0,0,1,17.1-17.1h101.4a13.5,13.5,0,1,1,0,27h-82.8q-2.7,0-2.7,2.4v57.3a2.39,2.39,0,0,0,2.7,2.7h77.4a12.9,12.9,0,1,1,0,25.8h-77.4a2.39,2.39,0,0,0-2.7,2.7v71.4a2.39,2.39,0,0,0,2.7,2.7h82.8a13.5,13.5,0,1,1,0,27Z" transform="translate(-186.8 -112.5)" /><path class="cls-5" d="M1022.88,320.3Q996.63,350,951.63,350t-71.25-29.7q-26.25-29.7-26.25-82.8t26.25-82.8Q906.63,125,951.63,125t71.25,29.7q26.25,29.7,26.25,82.8T1022.88,320.3Zm-24-146.85Q982.23,152,951.63,152t-47.25,21.45q-16.65,21.45-16.65,64.05t16.65,64.05Q921,323,951.63,323t47.25-21.45q16.65-21.45,16.65-64.05T998.88,173.45Z" transform="translate(-186.8 -112.5)" /></g></svg>
